<svg width="14" height="17" viewBox="0 0 14 17" fill="none" xmlns="http://www.w3.org/2000/svg">
<path d="M2.67594 5.60568H11.3241V12.9467C11.3241 13.3828 10.9847 13.7364 10.5665 13.7364H9.70029V15.9721C9.70029 16.5399 9.26556 17 8.72893 17C8.19092 17 7.75683 16.5399 7.75683 15.9721V13.7364H6.24394V15.9721C6.24394 16.5399 5.80835 17 5.27174 17C4.73524 17 4.29968 16.5399 4.29968 15.9721V13.7364H3.43422C3.01597 13.7364 2.67591 13.3828 2.67591 12.9467L2.67594 5.60568ZM0.981201 5.54577C0.439102 5.54577 0 6.01029 0 6.58373V10.6403C0 11.2131 0.439102 11.6784 0.981201 11.6784C1.5234 11.6784 1.9624 11.2131 1.9624 10.6403V6.58373C1.9624 6.01029 1.5234 5.54577 0.981201 5.54577ZM11.3241 4.86594H2.67594C2.78267 3.58252 3.58189 2.47809 4.73242 1.83861L3.91017 0.58094C3.79929 0.411339 3.84113 0.179926 4.00426 0.0644528C4.1672 -0.0510207 4.38891 -0.00710686 4.50034 0.162361L5.39652 1.53407C5.8934 1.35509 6.43275 1.25232 7.00002 1.25232C7.56795 1.25232 8.10734 1.35509 8.60418 1.5343L9.50036 0.16286C9.61042 -0.00707359 9.83283 -0.0509875 9.99577 0.064486C10.1589 0.17996 10.2007 0.411372 10.0899 0.580973L9.26828 1.83864C10.4188 2.47772 11.2175 3.58215 11.3241 4.86594ZM5.65435 3.12206C5.65435 2.84683 5.4404 2.6236 5.17629 2.6236C4.9115 2.6236 4.69755 2.84683 4.69755 3.12206C4.69755 3.39715 4.9122 3.62028 5.17629 3.62028C5.44037 3.62028 5.65435 3.39715 5.65435 3.12206ZM9.3631 3.12206C9.3631 2.84683 9.14842 2.6236 8.88436 2.6236C8.61957 2.6236 8.40627 2.84683 8.40627 3.12206C8.40627 3.39715 8.61957 3.62028 8.88436 3.62028C9.14845 3.62028 9.3631 3.39715 9.3631 3.12206ZM13.0195 5.54434C12.478 5.54434 12.0376 6.00956 12.0376 6.58303V10.6411C12.0376 11.2145 12.478 11.6799 13.0195 11.6799C13.5617 11.6799 14 11.2146 14 10.6411V6.58303C14 6.00956 13.5617 5.54434 13.0195 5.54434Z" fill="#111111"/>
</svg>
