<svg width="17" height="17" viewBox="0 0 17 17" fill="none" xmlns="http://www.w3.org/2000/svg">
<path d="M5.28835 11.9759C5.26896 11.2492 4.30151 10.9687 3.88782 11.6125C3.70468 11.9143 3.47197 12.216 3.3901 12.5624C3.22849 13.2488 4.10759 13.7163 4.59886 13.2042C4.92637 12.8578 5.17846 12.437 5.28835 11.9759ZM9.92516 3.07648C9.31541 2.51123 8.6604 3.20186 8.39537 3.77348C7.70156 1.96936 5.69341 3.19974 7.12626 4.78498C7.20168 4.97621 7.50119 5.14621 7.43653 5.35659C7.05947 6.02171 6.69104 6.68896 6.31398 7.35196C5.85718 8.01495 5.57923 8.91595 5.01471 9.45356C4.11191 9.51307 1.63835 9.2793 2.56056 10.8263C3.01949 11.3235 3.78008 11.0069 4.37478 11.0515C6.04032 10.9623 7.70156 11.0877 9.36712 11.0239C10.2225 11.0048 10.3346 9.77868 9.49423 9.62994C8.641 9.4812 7.77483 9.5322 6.91512 9.45994C7.87825 7.77908 8.71856 6.0302 9.77866 4.4046C10.0566 4.02635 10.3367 3.44835 9.92516 3.07648ZM5.54691 0.135498C8.15836 0.0929988 10.8452 -0.312875 13.3834 0.524374C16.0789 1.34462 17.0183 4.20909 16.9924 6.73996C17.0118 8.53131 17.0183 10.3376 16.6929 12.1034C16.1607 15.4163 14.2603 16.8655 10.9055 16.8995C7.27495 17.0206 1.88399 17.6305 0.416667 13.4188C-0.186631 11.0452 0.0331424 8.52708 0.0654638 6.0961C0.298166 2.56223 1.68577 0.211998 5.54691 0.135498ZM13.5967 10.9751C14.534 10.8731 14.437 9.45356 13.4976 9.45143C11.3343 9.4663 11.9613 10.0039 10.9874 8.0107C10.619 7.20109 9.8239 5.46708 8.86508 6.71658C8.50095 7.46245 9.30247 8.16582 9.57181 8.83095C10.4574 10.2186 11.2503 11.6635 12.1531 13.0427C12.5689 13.7057 13.6204 13.1149 13.2067 12.4052C12.9417 11.9568 12.7736 11.4765 12.5258 11.0197C12.8857 11.0112 13.239 11.0154 13.5967 10.9751Z" fill="#111111"/>
</svg>
