<svg width="17" height="14" viewBox="0 0 17 14" fill="none" xmlns="http://www.w3.org/2000/svg">
<path d="M15.5507 0.123596C15.5507 0.123596 17.1233 -0.482404 16.9922 0.989311C16.9486 1.59532 16.5554 3.71632 16.2496 6.01048L15.2012 12.8064C15.2012 12.8064 15.1139 13.8019 14.3275 13.9751C13.5412 14.1482 12.3618 13.3691 12.1433 13.1959C11.9686 13.0661 8.86704 11.1182 7.77491 10.1659C7.46912 9.90619 7.11964 9.38675 7.81859 8.78075L12.4054 4.4522C12.9296 3.93276 13.4538 2.72076 11.2696 4.19248L5.15388 8.30463C5.15388 8.30463 4.45493 8.73747 3.14444 8.34791L0.304956 7.48219C0.304956 7.48219 -0.743463 6.83292 1.04759 6.1836C5.416 4.14916 10.7891 2.07144 15.5507 0.123596Z" fill="#111111"/>
</svg>
