<svg width="17" height="10" viewBox="0 0 17 10" fill="none" xmlns="http://www.w3.org/2000/svg">
<path d="M10.294 4.81016C9.98316 4.69195 9.98316 4.2405 9.96389 3.92611C9.88618 2.80627 10.2747 1.09665 9.80846 0.369794C9.47834 -0.0627986 7.8849 -0.0231863 6.9138 0.035918C6.64149 0.0755304 6.31136 0.134006 6.07822 0.252215C5.84508 0.370424 5.61194 0.566599 5.61194 0.743283C5.61194 0.998563 6.1951 0.959579 6.40835 1.29346C6.64149 1.64745 6.64149 2.41329 6.64149 3.04206C6.64149 3.76892 6.52461 4.73219 6.23365 4.77118C5.78664 4.79067 5.53423 4.33858 5.30109 4.00471C4.83481 3.35645 4.36853 2.55037 4.01851 1.7644C3.84381 1.35193 3.7462 0.899847 3.49379 0.723163C3.10522 0.447762 2.4058 0.42827 1.72566 0.447762C1.10395 0.467254 0.209936 0.388658 0.0352363 0.762146C-0.100917 1.17462 0.190663 1.5676 0.34609 1.9021C1.1425 3.65071 1.99734 5.18365 3.04678 6.63736C4.01851 7.99299 4.93118 9.07384 6.71858 9.64351C7.22403 9.8007 9.43855 10.2528 9.88555 9.64351C10.041 9.40772 10.0024 8.87704 10.0801 8.48406C10.1579 8.09108 10.2548 7.6981 10.6241 7.6786C10.935 7.65911 11.1097 7.93388 11.3043 8.13069C11.5182 8.34699 11.6929 8.52367 11.8483 8.72047C12.2176 9.09396 12.6061 9.60452 13.0724 9.80133C13.7134 10.0767 14.7044 9.99813 15.637 9.95852C16.3948 9.93903 16.9388 9.78184 16.9973 9.32975C17.0364 8.97575 16.6472 8.46519 16.4141 8.1703C15.8309 7.44344 15.5592 7.22715 14.8984 6.55877C14.6068 6.26387 14.2375 5.94949 14.2375 5.59612C14.2182 5.37982 14.3929 5.18365 14.5484 4.96735C15.2285 3.9456 15.9086 3.21875 16.5304 2.15738C16.7051 1.843 17.1135 1.11614 16.9581 0.762146C16.7834 0.369166 15.8117 0.486745 15.2092 0.486745C14.4321 0.486745 13.4218 0.427641 13.2272 0.584833C12.8579 0.840113 12.7025 1.25322 12.5278 1.6462C12.1392 2.55037 11.6145 3.4734 11.0705 4.16127C10.8759 4.39706 10.5073 4.88813 10.2934 4.80953L10.294 4.81016Z" fill="#111111"/>
</svg>
