<svg width="19" height="13" viewBox="0 0 19 13" fill="none" xmlns="http://www.w3.org/2000/svg">
<path fill-rule="evenodd" clip-rule="evenodd" d="M7.58902 8.90139V3.69042C9.48161 4.56089 10.9474 5.40178 12.681 6.30837C11.2512 7.08346 9.48161 7.95313 7.58902 8.90139ZM18.1365 1.09876C17.81 0.678343 17.2536 0.351082 16.6612 0.242737C14.92 -0.0804524 4.05744 -0.0813717 2.31719 0.242737C1.84215 0.329781 1.41914 0.54018 1.05577 0.867074C-0.475344 2.25612 0.00443287 9.70515 0.37349 10.9118C0.528682 11.4341 0.729305 11.8107 0.981967 12.058C1.30749 12.3849 1.75319 12.61 2.26514 12.7109C3.69878 13.0007 11.0846 13.1628 16.6309 12.7544C17.1419 12.6674 17.5942 12.435 17.951 12.0943C19.3666 10.7108 19.2701 2.84341 18.1365 1.09876Z" fill="#111111"/>
</svg>
